<?xml version="1.0" encoding="UTF-8" standalone="no"?><!DOCTYPE svg PUBLIC "-//W3C//DTD SVG 1.1//EN" "http://www.w3.org/Graphics/SVG/1.1/DTD/svg11.dtd"><svg width="100%" height="100%" viewBox="0 0 1654 1638" version="1.1" xmlns="http://www.w3.org/2000/svg" xmlns:xlink="http://www.w3.org/1999/xlink" xml:space="preserve" xmlns:serif="http://www.serif.com/" style="fill-rule:evenodd;clip-rule:evenodd;stroke-linejoin:round;stroke-miterlimit:2;"><path d="M92.659,487.072l407.339,-0l14.088,-6.599c0,-0 -13.366,5.821 -13.366,5.821l13.367,-5.822c79.565,-85.532 183.609,-128.023 311.906,-128.023c130.332,0 235.424,42.46 315.017,128.02c79.041,85.046 118.063,198.78 118.063,340.855c0,142.078 -39.023,255.813 -118.066,340.859c-78.591,84.56 -183.697,126.461 -315.014,126.461c-130.309,-0 -235.388,-42.446 -314.976,-127.977c-38.495,-41.963 -67.389,-91.422 -86.77,-148.333l0,0l266.705,0c38.779,27.408 84.025,41.243 135.82,41.243c65.282,0 120.407,-22.578 165.43,-67.601c46.104,-46.104 69.157,-101.766 69.157,-166.986c-0,-64.139 -23.022,-119.295 -69.157,-165.43c-46.135,-46.135 -101.291,-69.157 -165.43,-69.157c-49.527,-0 -93.677,13.786 -132.48,41.245c0.003,-0.002 -294.451,-0.002 -294.451,-0.002c-0,-0 -365.841,-0 -365.841,-0c-8.698,-0 -16.188,6.136 -17.9,14.664c-10.727,53.438 -16.1,109.104 -16.1,167.007c0,237.602 78.669,434.828 235.641,591.822c157.056,159.157 351.737,238.841 584.127,238.841c234.331,-0 432.036,-78.047 593.204,-233.914c0.029,-0.028 0.059,-0.057 0.088,-0.085c160.258,-157.075 240.483,-351.786 240.483,-584.213c0,-230.28 -79.66,-424.451 -238.84,-582.57c-0.029,-0.029 -0.057,-0.057 -0.086,-0.085c-161.216,-158.034 -357.407,-237.113 -588.624,-237.113c-230.183,0 -425.335,78.564 -585.509,235.556c-70.086,68.693 -124.812,143.806 -164.259,225.305c-2.738,5.658 -2.373,12.327 0.966,17.652c3.338,5.326 9.182,8.559 15.468,8.559Zm407.339,-2.435l0,0.007l0.722,1.65l-0.722,-1.657Z" style="fill:#fff;fill-rule:nonzero;"/></svg>