<?xml version="1.0" encoding="UTF-8" standalone="no"?><!DOCTYPE svg PUBLIC "-//W3C//DTD SVG 1.1//EN" "http://www.w3.org/Graphics/SVG/1.1/DTD/svg11.dtd"><svg width="100%" height="100%" viewBox="0 0 1772 376" version="1.1" xmlns="http://www.w3.org/2000/svg" xmlns:xlink="http://www.w3.org/1999/xlink" xml:space="preserve" xmlns:serif="http://www.serif.com/" style="fill-rule:evenodd;clip-rule:evenodd;stroke-linejoin:round;stroke-miterlimit:2;"><g><path d="M310.053,6.46c-2.491,0 -4.511,2.02 -4.511,4.511l0,233.044c0,2.491 2.02,4.511 4.511,4.511l53.834,-0c2.491,-0 4.511,-2.02 4.511,-4.511l-0,-120.829c-0,-40.875 12.46,-62.005 39.514,-62.005c8.887,-0 17.952,3.457 27.276,10.158c1.073,0.771 2.43,1.033 3.713,0.717c1.283,-0.317 2.363,-1.18 2.954,-2.362l24.644,-49.289c1.055,-2.11 0.306,-4.677 -1.719,-5.888c-16.27,-9.728 -31.891,-14.517 -46.819,-14.517c-11.473,-0 -21.395,2.188 -29.788,6.466c-5.938,2.972 -12.541,7.794 -19.775,14.511c-0,0 -0,-10.006 -0,-10.006c-0,-2.491 -2.02,-4.511 -4.511,-4.511c0,0 -53.834,0 -53.834,0Z" style="fill-rule:nonzero;"/><path d="M583.185,200.744c-10.547,19.735 -89.765,167.956 -89.765,167.956c-0.747,1.398 -0.706,3.085 0.109,4.445c0.815,1.359 2.284,2.191 3.869,2.191l61.491,0c1.688,0 3.234,-0.942 4.008,-2.442l185.67,-359.855c0.722,-1.399 0.662,-3.072 -0.156,-4.415c-0.819,-1.344 -2.279,-2.164 -3.852,-2.164l-60.774,0c-1.713,0 -3.278,0.971 -4.04,2.505l-62.615,126.131c0,0 -67.18,-126.244 -67.18,-126.244c-0.783,-1.472 -2.314,-2.392 -3.982,-2.392l-62.448,0c-1.596,0 -3.073,0.844 -3.884,2.218c-0.812,1.375 -0.836,3.076 -0.064,4.473l103.613,187.593l0,-0Z" style="fill-rule:nonzero;"/><path d="M1011.07,238.512l0,-227.541c0,-2.491 -2.019,-4.511 -4.51,-4.511l-53.835,0c-2.491,0 -4.51,2.02 -4.51,4.511l-0,15.28c-18.943,-17.5 -41.844,-26.251 -68.705,-26.251c-34.954,-0 -63.071,13.176 -84.377,39.475c-0.006,0.008 -0.013,0.016 -0.019,0.025c-19.603,24.544 -29.459,54.342 -29.459,89.429c-0,36.131 10.627,66.217 31.745,90.305c0.003,0.003 0.006,0.007 0.009,0.01c21.139,23.969 48.259,35.981 81.383,35.981c25.812,0 48.966,-8.907 69.422,-26.808c0.001,0 0.001,22.058 0.001,22.058c-0,27.273 -6.282,46.498 -19.621,57.407c-8.732,7.141 -20.414,10.581 -34.968,10.581c-19.782,-0 -34.901,-6.579 -45.235,-20.013c-4.427,-5.756 -7.506,-13.984 -9.425,-24.61c-0.387,-2.147 -2.256,-3.709 -4.438,-3.709l-54.074,-0c-1.278,-0 -2.496,0.542 -3.352,1.492c-0.855,0.949 -1.267,2.217 -1.134,3.488c3.326,31.761 15.876,56.581 37.493,74.54c20.857,17.38 47.401,26.164 79.687,26.164c38.302,0 68.354,-12.707 90.244,-37.905c11.661,-13.166 19.508,-28.904 23.507,-47.233c0.006,-0.026 0.011,-0.052 0.016,-0.077c1.305,-6.525 2.328,-14.068 3.062,-22.632c0.727,-8.485 1.093,-18.304 1.093,-29.456Zm-60.702,-110.541c-0,20.046 -5.101,36.506 -15.501,49.318c-0.008,0.01 -0.016,0.019 -0.024,0.029c-11.092,13.903 -26.205,20.794 -45.284,20.794c-19.052,-0 -34.003,-6.792 -44.784,-20.526c-0.002,-0.003 -0.004,-0.005 -0.005,-0.008c-10.109,-12.824 -15.063,-29.301 -15.063,-49.367c-0,-20.379 4.949,-37.016 15.063,-49.847c0.005,-0.006 0.01,-0.013 0.016,-0.02c10.928,-14.03 25.869,-20.991 44.773,-20.991c17.765,-0 32.358,6.415 43.758,19.295c0.005,0.005 0.01,0.011 0.015,0.017c11.442,12.797 17.036,29.927 17.036,51.306Z" style="fill-rule:nonzero;"/><path d="M1058.99,125.818c-0,37.013 12.27,67.729 36.721,92.186c24.472,24.797 54.802,37.221 91.011,37.221c36.495,0 67.281,-12.165 92.381,-36.44c0.008,-0.007 0.015,-0.014 0.022,-0.021c24.972,-24.476 37.482,-54.814 37.482,-91.032c0,-35.881 -12.418,-66.134 -37.221,-90.771c-0.007,-0.007 -0.014,-0.014 -0.021,-0.021c-25.112,-24.616 -55.67,-36.94 -91.686,-36.94c-35.858,-0 -66.256,12.245 -91.207,36.701c-24.989,24.492 -37.482,54.198 -37.482,89.117Zm64.052,0.957c-0,-20.425 5.918,-37.129 17.933,-50.045c11.911,-12.804 27.497,-19.138 46.704,-19.138c19.515,-0 35.264,6.326 47.182,19.138c11.878,12.781 17.694,29.89 17.694,51.241c0,21.353 -5.816,38.462 -17.695,51.243c-11.767,12.661 -27.519,18.898 -47.181,18.898c-19.505,-0 -35.247,-6.32 -47.163,-19.117c-11.747,-12.808 -17.474,-30.243 -17.474,-52.22Z" style="fill-rule:nonzero;"/><path d="M1328.03,217.218c0,10.852 3.657,19.88 10.892,27.115c7.242,7.243 16.194,10.892 26.877,10.892c10.512,0 19.387,-3.641 26.637,-10.892c7.42,-7.42 11.131,-16.379 11.131,-26.876c-0,-10.327 -3.703,-19.209 -11.131,-26.638c-7.428,-7.428 -16.31,-11.131 -26.637,-11.131c-10.327,0 -19.21,3.703 -26.638,11.131c-7.436,7.436 -11.131,16.242 -11.131,26.399Z" style="fill-rule:nonzero;"/><path d="M1602.29,6.46c-2.491,0 -4.51,2.02 -4.51,4.511l-0,16.432c-20.525,-18.311 -43.367,-27.403 -68.466,-27.403c-32.768,0 -60.046,12.146 -81.836,36.431c-21.622,24.098 -32.497,54.197 -32.497,90.344c-0,36.77 10.866,67.417 32.467,91.985c0.013,0.016 0.027,0.031 0.041,0.047c21.939,24.266 49.687,36.418 83.261,36.418c23.716,0 46.08,-8.506 67.029,-25.665c0.001,-0.001 0.001,14.455 0.001,14.455c-0,2.491 2.019,4.511 4.51,4.511l54.074,-0c2.491,-0 4.511,-2.02 4.511,-4.511l-0,-233.044c-0,-2.491 -2.02,-4.511 -4.511,-4.511l-54.074,0Zm-123.257,120.315c-0,-19.706 5.729,-36.275 17.306,-49.667c11.535,-13.004 25.874,-19.516 43.024,-19.516c18.219,-0 33.051,6.396 44.459,19.276c11.594,13.411 17.307,30.465 17.307,51.103c0,20.626 -5.705,37.67 -17.284,51.078c-11.433,12.754 -26.432,19.063 -44.96,19.063c-17.287,-0 -31.617,-6.577 -42.996,-19.723c-11.307,-13.273 -16.856,-30.501 -16.856,-51.614Z" style="fill-rule:nonzero;"/><path d="M1771.65,10.971c-0,-2.491 -2.02,-4.511 -4.511,-4.511l-53.835,0c-2.491,0 -4.51,2.02 -4.51,4.511l-0,233.044c-0,2.491 2.019,4.511 4.51,4.511l53.835,-0c2.491,-0 4.511,-2.02 4.511,-4.511l-0,-233.044Z" style="fill-rule:nonzero;"/><path d="M78.572,78.288c-0,0 3.415,-1.559 3.415,-1.559c11.91,-12.804 27.497,-19.137 46.702,-19.137c19.516,-0 35.264,6.326 47.182,19.138c11.879,12.781 17.695,29.89 17.695,51.241c-0,21.353 -5.817,38.462 -17.696,51.243c-11.767,12.661 -27.519,18.898 -47.181,18.898c-19.504,-0 -35.247,-6.32 -47.162,-19.117c-5.255,-5.729 -9.306,-12.38 -12.178,-19.955l0,0l38.045,0c6.142,4.207 13.274,6.341 21.415,6.341c10.513,-0 19.387,-3.642 26.637,-10.892c7.421,-7.42 11.131,-16.379 11.131,-26.876c0,-10.327 -3.703,-19.21 -11.131,-26.638c-7.428,-7.428 -16.31,-11.131 -26.637,-11.131c-7.793,0 -14.758,2.123 -20.903,6.342c0.001,-0.001 -44.732,-0.001 -44.732,-0.001c-0,-0 -56.243,-0 -56.243,-0c-2.149,-0 -4,1.516 -4.423,3.623c-1.67,8.322 -2.508,16.992 -2.508,26.01c-0,37.013 12.271,67.729 36.722,92.186c24.471,24.797 54.801,37.221 91.01,37.221c36.495,0 67.281,-12.165 92.382,-36.44c0.007,-0.007 0.014,-0.014 0.021,-0.021c24.973,-24.476 37.483,-54.814 37.483,-91.032c-0,-35.881 -12.419,-66.134 -37.222,-90.771c-0.007,-0.007 -0.014,-0.014 -0.021,-0.021c-25.112,-24.616 -55.67,-36.94 -91.686,-36.94c-35.857,0 -66.255,12.245 -91.207,36.701c-10.921,10.704 -19.446,22.412 -25.593,35.112c-0.677,1.398 -0.587,3.045 0.238,4.361c0.825,1.315 2.269,2.114 3.822,2.114l62.623,0Z" style="fill-rule:nonzero;"/></g></svg>